<?xml version="1.0" encoding="UTF-8"?>
<svg width="319px" height="63px" viewBox="0 0 319 63" version="1.1" xmlns="http://www.w3.org/2000/svg" xmlns:xlink="http://www.w3.org/1999/xlink">
    <!-- Generator: Sketch 40.1 (33804) - http://www.bohemiancoding.com/sketch -->
    <title>White Group@1x</title>
    <desc>Created with Sketch.</desc>
    <defs></defs>
    <g id="Page-1" stroke="none" stroke-width="1" fill="none" fill-rule="evenodd">
        <g id="White-Group">
            <path d="M11.2,29.66 L11.2,14.4 L4,14.4 L4.07795565,14.3220443 L0.36,14.3220443 L0.36,9.72 L11.2,9.72 L11.2,5.04 L16.24,0 L16.24,9.72 L27,9.72 L27,14.3220443 L26.32,14.3220443 L26.32,14.4 L16.24,14.4 L16.24,24.04 L16.24,29.08 L16.24,33.4 L16.24,48 L16.24,48.4545898 C16.24,49.2860049 16.9154285,49.9753506 17.7403059,49.9940979 L18,50 L24,50 L29,50 L29,54.28 L16.24,54.28 C14.847993,54.28 13.6600049,53.7880049 12.676,52.804 C11.6919951,51.8199951 11.2,50.632007 11.2,49.24 L11.2,33.4 L11.2,29.66 Z" id="Combined-Shape" fill="#FFFFFF"></path>
            <path d="M37.04,15.2519531 L32,15.2519531 L32,9.48632812 L37.04,9.48632812 L37.04,15.2519531 Z M37.04,44.8007812 L32,44.8007812 L32,23.1796875 L37.04,18.1347656 L37.04,44.8007812 Z M89.6,44.8007812 L84.56,44.8007812 L84.56,23.9003906 L70.88,23.9003906 L70.88,44.8007812 L65.84,44.8007812 L65.84,23.9003906 L52.16,23.9003906 L52.16,44.8007812 L47.12,44.8007812 L47.12,19.5761719 L52.16,19.5761719 L52.16,23.1796875 L55.76,19.5761719 L65.84,19.5761719 C68.7680146,19.5761719 70.4239981,20.8013549 70.808,23.2517578 L74.48,19.5761719 L84.56,19.5761719 C85.952007,19.5761719 87.1399951,20.0686474 88.124,21.0536133 C89.1080049,22.0385791 89.6,23.2277274 89.6,24.6210938 L89.6,44.8007812 Z M124.88,39.7558594 C124.88,41.1492257 124.388005,42.338374 123.404,43.3233398 C122.419995,44.3083057 121.232007,44.8007812 119.84,44.8007812 L104.72,44.8007812 L104.72,59.9355469 L99.68,59.9355469 L99.68,19.5761719 L104.72,19.5761719 L104.72,23.1796875 L108.32,19.5761719 L119.84,19.5761719 C121.232007,19.5761719 122.419995,20.0686474 123.404,21.0536133 C124.388005,22.0385791 124.88,23.2277274 124.88,24.6210938 L124.88,39.7558594 Z M119.84,40.4765625 L119.84,23.9003906 L104.72,23.9003906 L104.72,44.0800781 L108.32,40.4765625 L119.84,40.4765625 Z M160.16,44.8007812 L140,44.8007812 C138.607993,44.8007812 137.420005,44.3083057 136.436,43.3233398 C135.451995,42.338374 134.96,41.1492257 134.96,39.7558594 L134.96,24.6210938 C134.96,23.2277274 135.451995,22.0385791 136.436,21.0536133 C137.420005,20.0686474 138.607993,19.5761719 140,19.5761719 L155.12,19.5761719 C156.512007,19.5761719 157.699995,20.0686474 158.684,21.0536133 C159.668005,22.0385791 160.16,23.2277274 160.16,24.6210938 L160.16,29.6660156 L155.12,34.7109375 L140.72,34.7109375 L145.04,30.3867187 L155.12,30.3867187 L155.12,23.9003906 L140,23.9003906 L140,40.4765625 L160.16,40.4765625 L160.16,44.8007812 Z M193.28,44.8007812 L188.24,44.8007812 L188.24,23.9003906 L173.12,23.9003906 L173.12,44.8007812 L168.08,44.8007812 L168.08,19.5761719 L173.12,19.5761719 L173.12,23.1796875 L176.72,19.5761719 L188.24,19.5761719 C189.632007,19.5761719 190.819995,20.0686474 191.804,21.0536133 C192.788005,22.0385791 193.28,23.2277274 193.28,24.6210938 L193.28,44.8007812 Z M228.56,44.8007812 L223.52,44.8007812 L223.52,41.1972656 L219.92,44.8007812 L208.4,44.8007812 C207.007993,44.8007812 205.820005,44.3083057 204.836,43.3233398 C203.851995,42.338374 203.36,41.1492257 203.36,39.7558594 L203.36,24.6210937 C203.36,23.2277274 203.851995,22.0385791 204.836,21.0536133 C205.820005,20.0686474 207.007993,19.5761719 208.4,19.5761719 L223.52,19.5761719 L223.52,8.04492187 L228.56,3 L228.56,44.8007812 Z M223.52,40.4765625 L223.52,20.296875 L219.92,23.9003906 L208.4,23.9003906 L208.4,40.4765625 L223.52,40.4765625 Z M244.4,15.2519531 L239.36,15.2519531 L239.36,9.48632812 L244.4,9.48632812 L244.4,15.2519531 Z M244.4,44.8007812 L239.36,44.8007812 L239.36,23.1796875 L244.4,18.1347656 L244.4,44.8007812 Z M279.68,44.8007812 L274.64,44.8007812 L274.64,23.9003906 L259.52,23.9003906 L259.52,44.8007812 L254.48,44.8007812 L254.48,19.5761719 L259.52,19.5761719 L259.52,23.1796875 L263.12,19.5761719 L274.64,19.5761719 C276.032007,19.5761719 277.219995,20.0686474 278.204,21.0536133 C279.188005,22.0385791 279.68,23.2277274 279.68,24.6210938 L279.68,44.8007812 Z M315.68,42.0087891 L315.68,26.0625 L310.64,26.0625 L310.64,40.4765625 L295.52,40.4765625 L295.52,23.9003906 L313.52,23.9003906 C313.52,23.9003906 319.557623,19.9888039 317.84,19.5761719 C316.122377,19.1635398 295.52,19.5761719 295.52,19.5761719 C294.127993,19.5761719 292.940005,20.0686474 291.956,21.0536133 C290.971995,22.0385791 290.48,23.2277274 290.48,24.6210938 L290.48,39.7558594 C290.48,41.1492257 290.971995,42.338374 291.956,43.3233398 C292.940005,44.3083057 294.127993,44.8007812 295.52,44.8007812 L306.32,44.8007812 L310.64,41.1251953 L310.64,42.6574219 L310.64,44.1896484 L310.64,58.6757812 L294.08,58.6757812 L289.76,63 L310.64,63 C312.032007,63 313.219995,62.5075245 314.204,61.5225586 C315.188005,60.5375927 315.68,59.3484445 315.68,57.9550781 L315.68,42.0087891 Z" id="Timpending" fill="#FFFFFF"></path>
            <path d="M28.5,52.15 L94.2837204,52.464394" id="Line" stroke="#FFFFFF" stroke-width="4.3" stroke-linecap="square"></path>
            <path d="M110.5,52.15 L305,52.15" id="Line" stroke="#FFFFFF" stroke-width="4.3" stroke-linecap="square"></path>
        </g>
    </g>
</svg>